<svg width="159" height="32" viewBox="0 0 159 32" xmlns="http://www.w3.org/2000/svg" xmlns:xlink="http://www.w3.org/1999/xlink"><title>Page 1</title><defs><path id="a" d="M.383 24.758h13.83V.202H.383z"/></defs><g fill="none" fill-rule="evenodd"><path d="M95.947 20.382V9.42L96.3 7l-5.3.564v.487l2.157.762v11.502l-.003-.007s-.012 1.123-1.968 1.123V22H98v-.569c-2.058 0-2.01-.799-2.053-1.049M94.5 5a1.5 1.5 0 1 0 0-3 1.5 1.5 0 0 0 0 3M77.633 20.356V2.266L77.979 0l-5.657 1.011v.496l2.561.364v18.417l-.003-.007s.11 1.09-1.922 1.09c-2.031 0-2.008-1.063-2.008-1.063V8.741l.345-1.793L66 7.417v.56c1.988 0 2.259.805 2.295 1.041V19.3l.33 2.7H80v-.578c-2.028 0-2.324-.812-2.367-1.066m-43.098-.028V13.31l-.062-3.107.006-.062c0 .006-.002.01-.002.01l.01-.08L34.784 7 29 7.96v.487l2.683.36v11.521c0 .26-.012 1.104-2.017 1.104V22H37v-.568c-2.135 0-2.465-.674-2.465-1.104" fill="#FFF"/><path d="M43 20.33v-9.035C43 8.106 40.53 7 38.603 7c-1.92 0-3.07 1.062-3.603 1.938l.21.183c.566-.717 1.62-1.206 3.12-.865 2.058.469 2.142 2.696 2.158 3.212v8.861c0 .522-.412 1.103-1.854 1.103V22H45v-.568c-1.931 0-2-.852-2-1.103m21.984.248c-2.051-.222-2.12-2.416-2.136-2.917V7L58 7.432v.551c2.275 0 2.248 1.09 2.248 1.09v8.756c0 3.097 2.412 4.171 4.296 4.171 1.896 0 2.837-.825 3.456-1.62l-.105-.201c-.357.23-1.562.543-2.911.398M89 7l-3 .678V8h3zm37 .504l.054.467L131 9l-.232-2z" fill="#FFF"/><path d="M87.403 20.974c-1.88-.134-1.674-3.207-1.674-3.207V4h-.78l-.112.33c-.33.875-1.428 3.211-3.837 3.443v.482h1.854l.003-.001.122 10.282h.004c.033.6.363 3.265 3.628 3.458C88.592 22.11 90 20.608 90 20.608l-.262-.302s-1.012.762-2.335.668m60.364.142v-3.75l-.03-1.866.155-1.5-2.892.512v.26l1.341.193v6.15c0 .138-.006.582-1.009.582V22H149v-.303c-1.068 0-1.233-.32-1.233-.581" fill="#FFF"/><path d="M151.86 21.1v-4.806c0-1.7-1.119-2.294-2.075-2.294-.951 0-1.581.563-1.785.98v.175c.31-.269.834-.652 1.577-.47 1.02.25 1.03 1.426 1.039 1.701v4.792c-.039.162-.205.519-.919.519V22H153v-.303c-1.154 0-1.14-.598-1.14-.598m5.8 0V16.29c0-1.7-1.438-2.291-2.561-2.291-1.12 0-1.86.564-2.099.98v.177c.364-.27.98-.653 1.854-.471 1.2.25 1.334 1.422 1.343 1.697v4.794c-.045.162-.24.52-1.08.52V22H159v-.303c-1.356 0-1.34-.598-1.34-.598M129 20a1 1 0 1 0 0 2 1 1 0 0 0 0-2m-118.74-.184c-4.65 0-7.014-4.334-7.014-8.816 0-3.719 1.255-9.898 6.05-9.898 3.079 0 5.68 7.172 5.67 7.182l.312-.011.204-8.264L15.001 0c.018-.001-.949 1.69-1.92 1.69-.813 0-1.713-1.033-4.066-1.033C3.715.657-.1 5.558.002 11.922.09 17.449 4.052 22 8.709 22c5.012 0 6.648-3.277 7.291-4.91l-.334-.226c-.006-.005-1.782 2.952-5.405 2.952M49.34 9.449c-.165-1.387 1.177-2.544 2.81-2.544 2.64 0 4.516 5.42 4.506 5.43l.452-.004.146-6.32L56.86 6c.018 0-.535 1.478-1.368 1.478-.88 0-1.455-.966-3.502-.966-2.27 0-4.408 1.337-4.474 4.002-.162 6.593 8.54 3.98 8.772 7.766.115 1.87-2.014 2.687-3.874 2.687-3.887 0-4.59-5.489-4.58-5.499l-.322.005L47 20.716s3.146 1.225 5.534 1.282c2.511.06 5.337-1.18 5.462-4.924.206-6.156-8.223-3.994-8.656-7.625M23.643 20.89c-1.447.162-4.64-.808-4.64-6.782 0-5.53 2.532-6.659 3.621-6.728 1.872-.12 4.582 1.515 4.582 7.12 0 5.276-2.218 6.24-3.563 6.39M23.08 7C17.747 7 16 11.665 16 14.49c0 2.692 1.178 7.51 6.915 7.51S30 16.82 30 14.243C30 11.664 28.936 7 23.081 7" fill="#FFF"/><g transform="translate(115 7)"><mask id="b" fill="#fff"><use xlink:href="#a"/></mask><path d="M7.075 23.643c-2.067 0-4.634-1.17-4.377-3.507.16-1.448 1.347-2.457 2.113-2.965 2.929.495 6.482.442 6.759 2.555.344 2.625-2.427 3.917-4.495 3.917M6.418.59c2.42-.221 3.83 2.533 3.83 6.66 0 2.93-1.396 4.929-2.943 5.035-2.059.14-3.835-1.404-3.835-5.449C3.47 1.794 5.455.68 6.418.59M2.924 13.927c-.327-.654-.046-1.314.252-1.657 1.018.687 2.148.976 3.49.976 4.517 0 6.213-3.81 6.213-6.522 0-1.202-.34-2.717-1.036-3.924C10.822.964 8.297.34 8.297.34A7.666 7.666 0 0 0 6.812.202C2.527.202.604 3.928.604 6.898c0 1.84.617 3.707 1.99 4.935-.753.421-1.682 1.185-1.682 2.393 0 1.628 1.252 2.343 2.898 2.742-1.04.362-3.14 1.314-3.4 3.168-.272 1.931 1.587 4.622 6.005 4.622 4.417 0 8.141-2.084 7.773-5.91-.431-4.474-10.253-2.899-11.264-4.921" fill="#FFF" mask="url(#b)"/></g><path d="M141.821 21.408c-.726.052-2.32-.431-2.32-3.617 0-2.949 1.336-3.478 1.811-3.51.777-.053 2.29.73 2.29 3.719 0 2.814-1.089 3.357-1.78 3.408M141.54 14c-2.668 0-3.541 2.488-3.541 3.994 0 1.436.589 4.006 3.458 4.006 2.868 0 3.542-2.762 3.542-4.138 0-1.374-.532-3.862-3.46-3.862m-7.339.584c1.422 0 2.537 2.75 2.537 2.75h.153l.1-3.334h-.236s-.315.824-.79.824c-.475 0-.645-.495-1.764-.495-2.026 0-3.2 1.739-3.2 3.767 0 2.029 1.028 3.904 3.283 3.904S137 20.093 137 20.093l-.164-.11s-.648 1.096-2.143 1.096c-1.3 0-2.404-1.43-2.404-3.079 0-2.07.678-3.416 1.911-3.416m-30.665 5.791V13.31l-.062-3.107.006-.062a.105.105 0 0 0-.002.01l.01-.08.298-3.071L98 7.96v.487l2.683.36V20.31s-.012 1.123-2.017 1.123V22H106v-.568c-2.135 0-2.426-.817-2.465-1.057" fill="#FFF"/><path d="M112 20.31v-9.015C112 8.107 109.53 7 107.603 7c-1.92 0-3.07 1.062-3.603 1.938l.21.184c.566-.718 1.62-1.207 3.12-.866 2.058.47 2.142 2.697 2.158 3.213v8.989c0 .46-.412.974-1.854.974V22H114v-.568c-1.958 0-2-1.122-2-1.122" fill="#FFF"/></g></svg>