<svg width="18" height="18" viewBox="0 0 18 18" xmlns="http://www.w3.org/2000/svg"><title>Group 2</title><g fill="none" fill-rule="evenodd" opacity=".37"><circle stroke="#10C45C" stroke-width="2" cx="9" cy="9" r="8"/><path d="M13.894 6.664l-.8-.8a.372.372 0 0 0-.541 0L7.74 10.675 5.447 8.37a.393.393 0 0 0-.27-.105.393.393 0 0 0-.271.105l-.8.8A.393.393 0 0 0 4 9.44c0 .102.035.192.106.27l3.365 3.377a.34.34 0 0 0 .264.118c.106 0 .194-.04.265-.118l5.894-5.882A.4.4 0 0 0 14 6.928a.36.36 0 0 0-.106-.264z" fill="#10C45C"/></g></svg>