<svg width="17" height="18" viewBox="0 0 17 18" xmlns="http://www.w3.org/2000/svg"><title>Page 1</title><path d="M17 8.67c.025 2.31-.778 4.284-2.41 5.923-1.632 1.64-3.624 2.484-5.976 2.534-2.353.025-4.364-.764-6.033-2.366C.91 13.16.05 11.203 0 8.894c-.025-2.31.778-4.285 2.41-5.924C4.042 1.331 6.034.487 8.386.437 10.74.412 12.75 1.2 14.42 2.803 16.09 4.404 16.95 6.36 17 8.67zM8.5 3.417c-.354 0-.645.112-.873.336a1.15 1.15 0 0 0-.341.856c0 .348.114.634.341.857.228.224.519.336.873.336s.645-.112.873-.336c.227-.223.341-.509.341-.857a1.15 1.15 0 0 0-.341-.856c-.228-.224-.519-.336-.873-.336zm1.67 10.543v-.41h-.835V7.143H6.83v.447h.835v5.96H6.83v.41h3.34z" fill="#FFF" fill-rule="evenodd"/></svg>