<svg width="150" height="22" viewBox="0 0 150 22" xmlns="http://www.w3.org/2000/svg"><title>Consulting.com</title><path d="M7.885 17.258c3.427 0 5.725-1.708 6.434-4.77h-1.955c-.558 1.89-2.191 2.987-4.468 2.987-3.062 0-5.006-2.428-5.006-6.23 0-3.771 1.965-6.22 4.995-6.22 2.213 0 3.985 1.331 4.48 3.362h1.954c-.494-3.094-3.061-5.146-6.434-5.146-4.243 0-6.983 3.137-6.983 8.003 0 4.91 2.707 8.014 6.983 8.014zm13.359-.15c-3.255 0-5.34-2.31-5.34-5.898 0-3.599 2.085-5.898 5.34-5.898s5.339 2.3 5.339 5.898c0 3.588-2.084 5.897-5.34 5.897zm0-1.666c2.159 0 3.437-1.579 3.437-4.232 0-2.664-1.278-4.232-3.437-4.232-2.16 0-3.438 1.579-3.438 4.232 0 2.653 1.29 4.232 3.438 4.232zM28.662 17h1.87v-6.725c0-1.987 1.149-3.297 3.05-3.297 1.826 0 2.707 1.03 2.707 2.921V17h1.87V9.577c0-2.632-1.473-4.264-4.018-4.264-1.794 0-2.944.676-3.674 1.987h-.043V5.42h-1.762V17zM40.56 8.653c0 1.547.988 2.568 3.019 3.094l2.03.526c1.321.344 1.805.774 1.805 1.59 0 1.042-.989 1.698-2.568 1.698-1.579 0-2.535-.634-2.728-1.816h-1.88c.182 2.009 1.987 3.362 4.48 3.362 2.674 0 4.575-1.396 4.575-3.373 0-1.686-.837-2.503-3.18-3.093l-1.761-.44c-1.332-.334-1.955-.86-1.955-1.644 0-1.01.956-1.687 2.385-1.687 1.418 0 2.363.677 2.481 1.762h1.794c-.075-1.902-1.858-3.309-4.21-3.309-2.515 0-4.287 1.375-4.287 3.33zM60.88 5.42h-1.87v6.725c0 1.987-1.149 3.297-3.05 3.297-1.816 0-2.707-1.02-2.707-2.921V5.42h-1.87v7.423c0 2.632 1.472 4.264 4.008 4.264 1.772 0 2.964-.687 3.684-2.02h.043V17h1.762V5.42zM63.636 17h1.87V.822h-1.87V17zm5.238-14.19v2.61h-1.611v1.547h1.61v7.025c0 2.224.817 3.094 2.912 3.094.44 0 .978-.043 1.203-.097V15.41c-.129.022-.58.054-.805.054-.989 0-1.44-.484-1.44-1.547v-6.95h2.256V5.42h-2.256V2.81h-1.87zM75.294 17h1.868V5.42h-1.869V17zm.934-13.45c.655 0 1.182-.536 1.182-1.18a1.18 1.18 0 0 0-1.182-1.183c-.645 0-1.182.527-1.182 1.182 0 .645.537 1.182 1.182 1.182zM79.918 17h1.87v-6.725c0-1.987 1.15-3.297 3.05-3.297 1.827 0 2.708 1.03 2.708 2.921V17h1.869V9.577c0-2.632-1.472-4.264-4.018-4.264-1.794 0-2.943.676-3.674 1.987h-.042V5.42h-1.762V17zm16.776-1.665c2.03 0 3.405-1.687 3.405-4.168 0-2.492-1.375-4.19-3.405-4.19-2.02 0-3.341 1.655-3.341 4.19 0 2.524 1.321 4.168 3.34 4.168zm.032 5.8c-2.621 0-4.523-1.267-4.791-3.19h1.944c.28.967 1.429 1.569 2.954 1.569 1.998 0 3.266-1.042 3.266-2.686v-1.815h-.043C99.326 16.27 97.961 17 96.339 17c-2.932 0-4.898-2.331-4.898-5.833 0-3.534 1.966-5.854 4.941-5.854 1.633 0 2.997.72 3.77 1.987h.033V5.42h1.783v11.258c0 2.771-1.987 4.458-5.242 4.458zm9.416-4.028c.699 0 1.225-.537 1.225-1.224 0-.698-.526-1.225-1.225-1.225-.687 0-1.224.527-1.224 1.225a1.21 1.21 0 0 0 1.224 1.224zm13.101-7.917c-.236-2.03-1.987-3.877-4.855-3.877-3.169 0-5.285 2.341-5.285 5.897 0 3.642 2.127 5.897 5.306 5.897 2.643 0 4.544-1.557 4.856-3.813h-1.837c-.322 1.396-1.396 2.148-3.008 2.148-2.02 0-3.416-1.6-3.416-4.232 0-2.557 1.375-4.232 3.395-4.232 1.74 0 2.771.977 3.008 2.212h1.836zm6.7 7.917c-3.256 0-5.34-2.31-5.34-5.897 0-3.599 2.084-5.898 5.34-5.898 3.254 0 5.338 2.3 5.338 5.898 0 3.588-2.084 5.897-5.339 5.897zm0-1.665c2.158 0 3.437-1.579 3.437-4.232 0-2.664-1.279-4.232-3.438-4.232-2.159 0-3.437 1.579-3.437 4.232 0 2.653 1.289 4.232 3.437 4.232zM133.36 17h1.869V9.813c0-1.622 1.138-2.835 2.685-2.835 1.45 0 2.407.923 2.407 2.32V17h1.869V9.717c0-1.59 1.106-2.74 2.653-2.74s2.438.946 2.438 2.546V17h1.87V9.094c0-2.3-1.483-3.781-3.77-3.781-1.623 0-2.987.816-3.643 2.19h-.042c-.505-1.396-1.676-2.19-3.245-2.19-1.504 0-2.739.751-3.287 1.987h-.043V5.42h-1.761V17z" fill="#FFF" fill-rule="evenodd"/></svg>