<svg width="16" height="15" viewBox="0 0 16 15" xmlns="http://www.w3.org/2000/svg"><title>Page 1</title><path d="M15.636 8.175h-1.479v5.138c0 .189-.057.378-.172.567-.115.19-.35.284-.705.284H9.754V9.042H6.246v5.122H2.72c-.355 0-.59-.095-.705-.284a1.086 1.086 0 0 1-.172-.567V8.175H.363c-.263 0-.383-.061-.36-.183.023-.123.126-.273.31-.45L7.38.684a.77.77 0 0 1 .284-.2.88.88 0 0 1 .67 0 .77.77 0 0 1 .284.2l7.069 6.856c.183.178.286.328.31.45.022.123-.098.184-.362.184z" fill="#FFF" fill-rule="evenodd"/></svg>