<svg width="16" height="16" viewBox="0 0 16 16" xmlns="http://www.w3.org/2000/svg"><title>Page 1</title><path d="M15.854 13.458c.195.195.195.39 0 .584l-1.789 1.833a.45.45 0 0 1-.333.125.399.399 0 0 1-.291-.125l-3.496-3.583c-1.054.639-2.163.958-3.329.958-1.803 0-3.356-.646-4.66-1.937C.652 10.02 0 8.458 0 6.625c0-1.833.652-3.396 1.956-4.688C3.26.646 4.813 0 6.616 0c1.804 0 3.35.646 4.64 1.937 1.29 1.292 1.935 2.855 1.935 4.688a6.34 6.34 0 0 1-.874 3.25l3.537 3.583zM6.616 2.583c-1.11 0-2.06.396-2.85 1.188-.79.792-1.186 1.743-1.186 2.854s.395 2.062 1.186 2.854c.79.792 1.74 1.188 2.85 1.188s2.053-.396 2.83-1.188a3.93 3.93 0 0 0 1.165-2.854 3.93 3.93 0 0 0-1.165-2.854c-.777-.792-1.72-1.188-2.83-1.188z" fill="#FFF" fill-rule="evenodd"/></svg>