<svg width="16" height="16" viewBox="0 0 16 16" xmlns="http://www.w3.org/2000/svg"><title>Page 1</title><path d="M16 15.69H0c0-.708.028-1.254.083-1.635.111-.546 1.236-1.214 3.375-2.005.334-.11.736-.245 1.209-.41.639-.217 1.014-.388 1.125-.51.11-.123.166-.485.166-1.085V9.8c0-.327-.125-.648-.375-.961-.25-.314-.444-.866-.583-1.657a1.805 1.805 0 0 0-.25-.655c-.111-.163-.222-.49-.333-.982a1.09 1.09 0 0 1-.021-.695c.07-.218.104-.355.104-.41-.056-.435-.111-.885-.167-1.35-.055-.626.223-1.301.834-2.024C5.777.343 6.722-.018 8-.018c1.278 0 2.222.361 2.833 1.084.611.723.89 1.398.834 2.025-.056.464-.111.914-.167 1.35 0 .054.035.19.104.409.07.218.063.45-.02.695-.112.491-.223.819-.334.982a1.805 1.805 0 0 0-.25.655c-.139.79-.333 1.343-.583 1.657-.25.313-.375.634-.375.961 0 .818.083 1.282.25 1.39.055.055.736.315 2.041.778.056.027.125.055.209.082 2.139.79 3.264 1.46 3.375 2.005L16 15.69z" fill="#FFF" fill-rule="evenodd"/></svg>